<svg xmlns="http://www.w3.org/2000/svg" viewBox="0 0 1440 320">
                <path fill="#00a2ff" fill-opacity="1" d="M0,192L26.7,208C53.3,224,107,256,160,261.3C213.3,267,267,245,320,250.7C373.3,256,427,288,480,266.7C533.3,245,587,171,640,160C693.3,149,747,203,800,213.3C853.3,224,907,192,960,197.3C1013.3,203,1067,245,1120,224C1173.3,203,1227,117,1280,106.7C1333.3,96,1387,160,1413,192L1440,224L1440,320L1413.3,320C1386.7,320,1333,320,1280,320C1226.7,320,1173,320,1120,320C1066.7,320,1013,320,960,320C906.7,320,853,320,800,320C746.7,320,693,320,640,320C586.7,320,533,320,480,320C426.7,320,373,320,320,320C266.7,320,213,320,160,320C106.7,320,53,320,27,320L0,320Z"></path>
            </svg>